<svg width="157" height="115" viewBox="0 0 157 115" fill="none" xmlns="http://www.w3.org/2000/svg">
<g filter="url(#filter0_d_2508_12495)">
<rect width="119.443" height="47.5316" rx="23.7658" transform="matrix(0.999803 0.0198617 -0.0226878 0.999743 19.3145 27.8932)" stroke="url(#paint0_radial_2508_12495)" stroke-opacity="0.5" stroke-width="1.50149" shape-rendering="crispEdges"/>
<g clip-path="url(#clip0_2508_12495)">
<path d="M58.7589 43.9007L60.5339 45.1172C60.6168 45.1743 60.6352 45.2886 60.5726 45.366C60.3883 45.5964 60.0252 46.0443 59.7984 46.2729C59.2142 46.8608 58.5469 47.364 57.817 47.764L57.465 47.9557C57.4097 47.9852 57.3415 47.9833 57.2899 47.9465L55.5407 46.7484C55.4375 46.6765 55.4467 46.5199 55.5592 46.4627C56.5268 45.9614 57.3894 45.2849 58.1027 44.4666C58.217 44.3357 58.4087 44.0887 58.5248 43.9357C58.5801 43.862 58.6833 43.8473 58.7589 43.8989L58.7589 43.9007Z" fill="#FF8900"/>
<path d="M54.3874 47.2885L51.4789 47.2885C51.1928 47.2885 50.9609 47.5204 50.9609 47.8064L50.9609 61.2044C50.9609 61.4904 51.1928 61.7223 51.4789 61.7223L54.3874 61.7223C54.6734 61.7223 54.9053 61.4904 54.9053 61.2044L54.9053 47.8064C54.9053 47.5204 54.6734 47.2885 54.3874 47.2885Z" fill="#FF8900"/>
<path d="M69.7362 57.2561C69.6054 59.3868 68.3999 61.8216 64.3044 61.8087C61.2779 61.7995 59.2062 59.6172 59.2062 56.7824L59.2062 52.2372L57.4515 52.2372C57.1658 52.2372 56.9336 52.0049 56.9336 51.7193L56.9336 50.5157C56.9336 50.23 57.1658 49.9977 57.4515 49.9977L59.315 49.9977L59.315 48.0034C59.315 47.7177 59.5472 47.4855 59.8329 47.4855L62.6861 47.4855C62.9718 47.4855 63.204 47.7177 63.204 48.0034L63.204 49.9977L65.8766 49.9977C66.1623 49.9977 66.3946 50.23 66.3946 50.5157L66.3946 51.7193C66.3946 52.0049 66.1623 52.2372 65.8766 52.2372L63.204 52.2372L63.204 56.4027C63.2612 58.2883 64.3302 57.881 64.3634 56.9354C64.3892 56.1779 64.4058 55.5199 64.4058 55.5143L64.4058 55.4793C64.4168 55.2028 64.6417 54.9817 64.92 54.9798L69.2128 54.9466C69.4966 54.943 69.7288 55.1678 69.7381 55.4498L69.7381 55.4867C69.7381 55.5364 69.7694 56.7179 69.7381 57.2561L69.7362 57.2561Z" fill="#FF8900"/>
<path d="M82.2065 47.4103C82.4922 47.4103 82.7244 47.6426 82.7244 47.9282L82.7244 56.3275C82.7244 59.6581 80.3781 61.8073 76.747 61.8073C73.116 61.8073 70.7715 59.6563 70.7715 56.3275L70.7715 47.9301C70.7715 47.6444 71.0037 47.4122 71.2894 47.4122L74.1426 47.4122C74.4283 47.4122 74.6606 47.6444 74.6606 47.9301L74.6606 56.0216C74.6606 57.4205 75.0476 58.073 76.0153 58.0712C76.9829 58.0693 77.2133 57.4205 77.2133 56.0216L77.2133 47.9301C77.2133 47.6444 77.4456 47.4122 77.7313 47.4122L82.2009 47.4122L82.2065 47.4103Z" fill="#FF8900"/>
<path d="M105.49 61.7004L96.0511 61.7004C95.7654 61.7004 95.5332 61.4681 95.5332 61.1824L95.5332 55.0005C95.5332 54.7148 95.7654 54.4825 96.0511 54.4825L100.443 54.4825C100.539 54.4825 100.617 54.4051 100.617 54.3093L100.617 53.8079C100.617 52.8366 99.8186 52.0348 98.8472 52.0274L96.0474 52.0072C95.7618 52.0053 95.5332 51.7731 95.5332 51.4892L95.5332 47.978C95.5332 47.7365 95.6991 47.5246 95.935 47.4711C96.5285 47.3347 97.146 47.2629 97.78 47.2629C99.0905 47.2629 100.331 47.5707 101.431 48.1162C102.992 48.8904 104.272 50.1437 105.077 51.6864C105.604 52.6947 105.929 53.8245 105.995 55.0263C106.002 55.1534 106.006 59.636 106.008 61.1824C106.008 61.47 105.776 61.7004 105.49 61.7004Z" fill="#FF8900"/>
<path d="M94.6703 47.7416L94.6703 53.9623C94.6703 54.2498 94.4381 54.4802 94.1524 54.4802L91.0264 54.5116C89.9721 54.5226 89.1242 55.3797 89.1242 56.4321L89.1242 61.2207C89.1242 61.5064 88.892 61.7386 88.6063 61.7386L84.8204 61.7386C84.5348 61.7386 84.3025 61.5064 84.3025 61.2207C84.3025 61.2207 84.3025 53.3172 84.2988 53.1292C84.4518 49.841 87.0691 47.2218 90.3942 47.2218L94.1524 47.2218C94.4399 47.2218 94.6703 47.4559 94.6703 47.7398L94.6703 47.7416Z" fill="#FF8900"/>
<path d="M100.224 60.5442C100.224 59.2559 99.181 58.2126 97.8926 58.2126C99.181 58.2126 100.224 57.1694 100.224 55.881C100.224 57.1694 101.267 58.2126 102.556 58.2126C101.267 58.2126 100.224 59.2559 100.224 60.5442Z" fill="#FFE1BE"/>
</g>
</g>
<defs>
<filter id="filter0_d_2508_12495" x="-0.000266075" y="27.6098" width="156.969" height="86.4942" filterUnits="userSpaceOnUse" color-interpolation-filters="sRGB">
<feFlood flood-opacity="0" result="BackgroundImageFix"/>
<feColorMatrix in="SourceAlpha" type="matrix" values="0 0 0 0 0 0 0 0 0 0 0 0 0 0 0 0 0 0 127 0" result="hardAlpha"/>
<feMorphology radius="12.0119" operator="erode" in="SourceAlpha" result="effect1_dropShadow_2508_12495"/>
<feOffset dy="18.0178"/>
<feGaussianBlur stdDeviation="15.0149"/>
<feComposite in2="hardAlpha" operator="out"/>
<feColorMatrix type="matrix" values="0 0 0 0 0 0 0 0 0 0 0 0 0 0 0 0 0 0 0.06 0"/>
<feBlend mode="normal" in2="BackgroundImageFix" result="effect1_dropShadow_2508_12495"/>
<feBlend mode="normal" in="SourceGraphic" in2="effect1_dropShadow_2508_12495" result="shape"/>
</filter>
<radialGradient id="paint0_radial_2508_12495" cx="0" cy="0" r="1" gradientTransform="matrix(26.0446 89.9238 -16.5965 42.1075 4.24353 -15.7096)" gradientUnits="userSpaceOnUse">
<stop stop-color="white"/>
<stop offset="1" stop-color="white" stop-opacity="0.2"/>
</radialGradient>
<clipPath id="clip0_2508_12495">
<rect width="55.0498" height="17.9395" fill="white" transform="translate(50.9609 43.8693)"/>
</clipPath>
</defs>
</svg>
